<?xml version="1.0" standalone="no"?>
<!DOCTYPE svg PUBLIC "-//W3C//DTD SVG 20010904//EN"
 "http://www.w3.org/TR/2001/REC-SVG-20010904/DTD/svg10.dtd">
<svg version="1.0" xmlns="http://www.w3.org/2000/svg"
 width="700.000000pt" height="700.000000pt" viewBox="0 0 700.000000 700.000000"
 preserveAspectRatio="xMidYMid meet">
<metadata>
Created by potrace 1.14, written by Peter Selinger 2001-2017
</metadata>
<g transform="translate(0.000000,700.000000) scale(0.100000,-0.100000)"
fill="#000000" stroke="none">
<path d="M1626 6793 c-39 -20 -46 -50 -46 -182 l0 -118 -372 -520 c-205 -285
-380 -530 -389 -543 l-16 -25 -275 0 c-302 0 -315 -3 -335 -62 -5 -16 -9 -303
-8 -678 1 -700 -1 -680 52 -704 16 -8 217 -11 618 -11 l595 0 31 28 32 29 1
181 c0 157 2 182 16 183 8 0 60 1 115 2 l100 1 5 -188 5 -188 28 -24 c22 -19
39 -24 83 -24 l54 0 0 -42 c1 -24 1 -851 1 -1838 0 -1964 -3 -1847 57 -1868
15 -5 154 -9 309 -8 l283 1 27 28 28 27 1 1623 c1 989 -2 1634 -8 1654 -16 54
-75 78 -131 52 -54 -25 -51 72 -53 -1619 -1 -861 -2 -1567 -3 -1570 -1 -4
-292 -5 -312 -1 -3 0 -6 802 -6 1781 l0 1780 304 0 c338 0 353 2 372 62 5 18
10 105 10 192 0 87 3 161 6 164 3 3 458 6 1010 6 l1005 1 1 -30 c0 -16 1 -133
0 -259 0 -125 4 -239 9 -252 18 -47 57 -60 179 -59 l111 1 0 -93 0 -93 -78 0
c-52 0 -84 -5 -98 -15 -19 -13 -61 -77 -122 -187 -12 -20 -48 -84 -82 -141
-37 -64 -60 -115 -60 -133 0 -20 35 -91 101 -207 l102 -177 -92 -152 c-51 -84
-96 -160 -101 -168 -6 -8 -68 -112 -139 -230 l-129 -214 -368 -1 c-390 -1
-401 -2 -425 -48 -9 -15 -12 -105 -12 -299 -1 -300 2 -315 53 -340 37 -18
3063 -18 3096 0 46 25 51 58 49 347 -1 284 -4 303 -48 327 -16 9 -118 12 -389
13 -202 1 -369 3 -371 6 -2 2 -43 69 -91 149 -48 80 -93 154 -99 165 -7 11
-27 43 -44 72 -18 30 -33 55 -33 58 0 2 -12 23 -27 47 -16 24 -33 52 -40 63
-7 11 -37 62 -68 113 l-56 93 102 176 c69 121 102 186 101 206 -1 37 -224 430
-260 457 -20 16 -40 20 -103 20 l-79 0 0 90 c0 50 3 90 8 91 4 1 58 2 121 4
l114 2 29 32 28 31 0 264 0 264 23 3 c12 2 105 4 207 4 l185 -1 5 -46 c12 -98
19 -99 409 -96 l323 3 27 32 27 32 -1 378 c-1 406 -1 409 -52 432 -14 7 -95
11 -196 11 l-173 0 -704 705 c-388 387 -717 710 -732 718 -22 10 -214 13
-1007 12 l-981 0 0 81 c0 45 -5 94 -10 110 -19 55 -34 59 -280 60 -124 1 -235
-2 -247 -7 -29 -11 -64 -67 -59 -95 14 -78 39 -87 231 -90 88 -1 163 -2 166
-3 12 -2 6 -301 -5 -302 -6 0 -233 -1 -504 -2 l-492 -2 0 153 c0 114 3 152 13
153 6 1 46 3 87 4 41 1 85 3 96 4 12 0 33 13 48 27 42 43 34 118 -17 146 -33
19 -335 20 -371 1z m3868 -1047 c399 -399 615 -621 606 -624 -8 -3 -27 -18
-42 -33 -22 -21 -28 -37 -28 -68 0 -47 24 -42 -205 -43 -238 0 -212 -5 -218
49 -4 35 -12 53 -32 70 -26 23 -27 23 -351 23 -350 0 -368 -2 -391 -52 -7 -15
-11 -115 -12 -258 -1 -129 -4 -236 -7 -239 -7 -7 -1994 -7 -2005 0 -6 3 -8 52
-7 110 l3 104 916 0 c862 0 917 1 943 18 52 35 57 100 11 146 l-25 26 -921 1
c-506 1 -922 3 -924 6 -3 2 -5 81 -6 174 -1 93 -6 179 -10 191 -12 34 -55 56
-110 57 -27 1 -49 3 -50 6 -6 33 -2 693 5 698 5 3 69 6 143 6 131 1 133 2 160
29 26 25 28 35 31 115 2 48 5 92 6 97 2 7 328 10 952 10 l949 0 619 -619z
m-3864 382 c20 -12 52 -15 148 -14 68 0 128 -2 133 -5 9 -5 13 -274 10 -629
l-1 -75 -57 -1 c-50 -1 -60 -5 -85 -33 l-28 -31 0 -180 c0 -137 -3 -180 -12
-181 -20 -1 -180 -1 -203 0 -20 1 -21 7 -21 179 -1 198 -8 225 -66 240 -16 4
-115 7 -219 7 -104 0 -189 1 -189 2 0 2 83 118 365 513 137 192 182 248 190
237 5 -7 21 -21 35 -29z m805 -365 l0 -348 -120 -5 c-66 -3 -138 -3 -161 -2
l-41 4 0 349 0 349 161 0 161 0 0 -347z m-1119 -555 c4 -4 8 -966 5 -1056 -1
-10 -99 -12 -473 -10 l-472 3 -1 530 c0 406 3 531 12 535 17 7 922 5 929 -2z
m1290 -533 l0 -535 -333 1 -332 0 0 534 -1 535 318 2 c174 2 324 2 332 0 14
-3 16 -64 16 -537z m2812 -225 c1 -264 -2 -480 -6 -481 -10 -1 -375 -1 -388 0
-7 1 -10 146 -8 479 1 262 2 478 3 480 1 1 90 2 199 2 l199 0 1 -480z m1204
468 c2 -7 3 -121 3 -253 l0 -240 -202 -1 -203 -1 0 253 0 254 199 0 c150 0
200 -3 203 -12z m-4874 -242 l-3 -110 -100 -1 c-55 -1 -107 2 -115 6 -14 7
-17 68 -11 194 1 20 7 21 116 21 l116 0 -3 -110z m4273 105 c3 0 5 -49 4 -108
l0 -107 -205 0 -205 -1 -3 110 -3 110 203 -1 c112 -1 206 -2 209 -3z m-556
-1523 c44 -77 79 -145 77 -150 -5 -18 -154 -273 -162 -278 -10 -6 -328 -6
-333 1 -16 20 -157 273 -157 281 0 11 9 27 107 196 l54 92 167 0 167 -1 80
-141z m-350 -959 l0 -333 -233 -1 c-151 0 -231 3 -228 10 2 6 69 118 150 250
80 132 166 276 192 320 26 44 51 82 55 85 5 3 21 5 36 4 l28 -1 0 -334z m327
239 c29 -49 58 -97 63 -106 78 -128 267 -446 271 -455 3 -9 -52 -12 -223 -11
-126 1 -231 2 -235 3 -5 1 -8 149 -8 330 0 306 1 330 18 333 44 9 61 -5 114
-94z m1182 -921 l1 -157 -1407 0 -1408 0 0 153 c0 85 2 156 4 158 2 2 636 4
1407 3 l1403 0 0 -157z"/>
<path d="M2143 6774 c-34 -33 -40 -55 -23 -98 11 -30 64 -66 88 -61 10 2 22 4
28 4 6 1 23 12 38 26 45 42 33 120 -23 149 -41 22 -72 16 -108 -20z"/>
</g>
</svg>
